<?xml version="1.0" standalone="no"?>
<!DOCTYPE svg PUBLIC "-//W3C//DTD SVG 20010904//EN"
 "http://www.w3.org/TR/2001/REC-SVG-20010904/DTD/svg10.dtd">
<svg version="1.0" xmlns="http://www.w3.org/2000/svg"
 width="3936.000000pt" height="3936.000000pt" viewBox="0 0 3936.000000 3936.000000"
 preserveAspectRatio="xMidYMid meet">
<metadata>
Created by potrace 1.14, written by Peter Selinger 2001-2017
</metadata>
<g transform="translate(0.000000,3936.000000) scale(0.100000,-0.100000)"
fill="#000000" stroke="none">
<path d="M2590 23714 c-80 -22 -214 -26 -285 -8 -69 16 -176 11 -243 -11 -24
-9 -48 -13 -53 -10 -5 4 -9 3 -9 -2 0 -10 -109 -7 -170 4 -25 5 -65 6 -90 2
-24 -3 -78 -5 -119 -3 -42 1 -81 -2 -88 -8 -7 -5 -38 -12 -70 -15 -32 -3 -96
-13 -143 -23 -47 -10 -107 -21 -135 -25 -27 -3 -68 -8 -90 -11 -22 -3 -51 -5
-65 -4 -131 6 -274 -4 -340 -25 -10 -3 -28 -8 -39 -10 -12 -2 -56 -16 -98 -30
-42 -15 -84 -29 -92 -31 -9 -2 -49 -11 -88 -20 -65 -15 -73 -20 -73 -41 0 -12
-4 -23 -8 -23 -14 0 -51 -57 -56 -86 -4 -23 2 -35 37 -68 23 -22 43 -44 43
-48 1 -4 2 -14 3 -20 8 -67 105 -70 246 -8 82 36 244 90 288 96 12 2 33 5 47
8 166 36 281 38 365 6 45 -17 56 -36 56 -92 -1 -29 -1 -61 -1 -70 0 -10 0 -48
-1 -85 0 -38 0 -72 1 -78 1 -5 2 -12 1 -15 -1 -3 -4 -39 -6 -80 -2 -41 -6 -91
-8 -111 -5 -36 -20 -139 -22 -149 -18 -79 -25 -119 -30 -193 -3 -33 -11 -68
-19 -76 -20 -22 -21 -35 -11 -126 9 -83 9 -116 3 -295 -2 -58 1 -125 7 -150 7
-28 8 -64 3 -95 -4 -27 -5 -88 -2 -135 10 -142 12 -244 4 -265 -4 -11 -10 -39
-14 -63 -3 -24 -8 -47 -11 -51 -9 -16 -18 -117 -16 -196 8 -329 4 -575 -9
-575 -15 0 -22 -348 -9 -410 17 -78 10 -269 -13 -355 -5 -22 -12 -53 -14 -70
-2 -16 -9 -64 -15 -105 -7 -41 -13 -147 -14 -235 -2 -144 -9 -243 -20 -285 -2
-8 -7 -35 -10 -60 -3 -25 -8 -56 -10 -70 -20 -108 -22 -124 -24 -162 0 -15
-12 -38 -25 -51 -20 -20 -24 -37 -30 -118 -4 -52 -8 -105 -7 -119 0 -48 14
-145 22 -156 21 -26 21 -114 1 -181 -12 -38 -24 -87 -28 -111 -4 -23 -10 -45
-14 -47 -5 -3 -3 -18 3 -34 9 -23 7 -37 -6 -68 -21 -49 -23 -60 -14 -105 6
-26 3 -46 -7 -67 -23 -44 -35 -108 -23 -120 20 -20 17 -139 -5 -188 -22 -49
-21 -129 2 -203 16 -54 22 -132 12 -160 -6 -15 -6 -37 0 -55 14 -47 10 -202
-8 -275 -3 -14 -8 -59 -10 -100 -6 -93 -6 -86 0 -140 5 -40 1 -54 -40 -123
l-45 -78 -67 2 c-37 1 -80 9 -97 17 -20 11 -50 15 -88 13 -51 -2 -59 0 -64 17
-3 11 -16 23 -29 26 -13 3 -37 26 -54 51 l-31 44 -50 -19 c-27 -11 -52 -20
-55 -20 -12 0 -73 -73 -88 -105 -16 -32 -15 -36 13 -97 16 -34 39 -94 51 -133
22 -69 52 -110 75 -101 7 2 18 0 26 -4 7 -5 18 -5 25 0 22 19 171 15 249 -5
68 -18 163 -37 201 -40 17 -2 45 -10 62 -19 22 -11 42 -14 69 -9 21 4 61 6 88
5 91 -6 189 -5 259 3 60 6 75 4 118 -16 39 -18 54 -21 80 -13 18 6 49 7 68 3
19 -4 51 -5 70 -2 67 11 178 9 241 -4 122 -27 222 -24 344 8 61 16 121 32 135
35 25 6 97 8 135 4 21 -2 102 6 145 14 14 2 57 9 95 15 88 14 126 20 147 27 9
3 27 7 40 10 13 3 32 7 43 9 103 23 149 28 290 29 101 1 137 5 155 17 39 25
80 36 148 38 34 1 75 5 90 7 15 3 41 7 58 9 18 1 68 19 114 38 53 23 91 34
108 30 68 -12 109 -6 185 30 42 20 82 37 87 37 6 0 21 6 33 14 12 8 65 29 117
47 52 17 124 45 160 62 36 16 84 35 108 42 49 15 192 94 192 107 0 4 9 8 19 8
11 0 21 4 23 8 5 13 120 69 166 82 24 6 51 19 62 30 17 17 53 34 75 35 6 0 28
17 50 38 22 20 80 58 129 84 50 25 106 61 126 79 19 18 46 42 60 53 14 12 42
36 63 54 21 17 44 37 51 42 48 41 169 149 215 192 30 29 58 53 63 53 14 0 79
74 95 110 20 42 59 81 175 172 79 63 103 91 96 114 -6 18 27 99 44 112 10 7
18 19 18 25 0 7 11 24 25 39 14 15 25 30 25 34 0 3 8 18 19 32 10 15 24 51 31
81 7 30 30 97 50 150 74 191 87 256 106 526 3 49 7 92 10 96 2 4 6 27 9 50 3
24 12 72 21 105 8 34 16 71 17 83 1 11 4 21 8 21 4 0 9 10 12 23 3 12 11 42
17 67 6 24 13 74 15 110 2 36 7 90 10 120 3 30 7 78 10 105 7 70 21 170 25
170 2 0 3 10 13 75 3 19 10 55 17 80 25 93 20 276 -10 345 -24 56 -25 69 -17
135 4 31 -18 115 -40 155 -13 22 -18 59 -20 134 -2 116 -7 143 -35 210 -10 25
-23 55 -28 66 -33 79 -54 158 -65 250 -3 21 -14 48 -25 60 -26 28 -39 67 -44
131 -4 54 -15 80 -55 121 -12 12 -40 57 -63 100 -22 43 -53 96 -68 118 -15 22
-25 49 -23 60 11 62 0 95 -62 189 -44 67 -53 87 -49 115 3 25 -1 38 -16 51
-12 10 -18 25 -15 39 3 16 -2 24 -20 31 -15 6 -25 17 -25 29 0 11 -13 42 -30
68 -16 26 -30 51 -30 57 0 8 -74 112 -89 126 -7 6 -49 70 -79 120 -12 19 -33
49 -47 65 -14 17 -35 40 -46 53 -10 12 -19 36 -19 52 0 24 -6 32 -34 44 -36
15 -73 64 -106 140 -20 49 -107 123 -198 170 -15 8 -46 33 -67 55 -22 23 -56
46 -75 52 -19 6 -42 17 -50 23 -8 7 -27 18 -43 26 -15 7 -46 39 -69 71 -36 49
-50 60 -88 69 -97 25 -131 48 -232 158 -34 37 -41 40 -80 37 -42 -4 -79 11
-103 41 -13 15 -164 74 -280 109 -49 14 -97 29 -105 32 -8 3 -26 8 -40 10 -13
2 -30 9 -37 15 -7 6 -13 8 -13 5 0 -3 -17 -1 -37 4 -40 10 -67 15 -119 23 -17
2 -50 16 -73 32 -34 22 -51 27 -89 24 -67 -4 -209 -2 -263 3 -26 3 -64 0 -85
-8 -21 -7 -48 -11 -59 -8 -11 2 -29 6 -40 8 -11 3 -45 12 -75 20 -88 25 -176
34 -225 22 -34 -8 -40 -9 -45 -8 -3 1 -30 4 -60 6 -64 4 -96 10 -165 28 -68
19 -178 19 -245 1z m257 -339 c11 -8 30 -13 41 -10 11 2 37 6 58 10 22 4 45 8
53 9 16 3 68 -20 76 -35 4 -5 31 -6 68 -2 68 8 268 8 332 0 50 -7 81 -13 175
-37 118 -30 130 -32 225 -37 97 -5 150 -17 177 -40 10 -9 39 -17 66 -18 27 -1
64 -11 83 -21 19 -10 36 -19 39 -19 3 -1 23 -10 45 -21 29 -15 50 -19 77 -14
30 5 42 2 65 -17 15 -14 68 -45 118 -70 112 -56 179 -95 183 -105 2 -4 12 -8
22 -8 10 0 21 -4 24 -9 3 -5 18 -12 33 -16 15 -3 54 -33 87 -65 95 -90 119
-113 160 -145 22 -16 44 -35 51 -42 18 -17 84 -53 97 -53 15 0 58 -40 58 -54
0 -11 51 -89 62 -94 22 -11 186 -139 223 -176 38 -37 45 -50 45 -82 0 -27 8
-48 25 -68 14 -16 25 -25 25 -20 1 5 9 -7 19 -26 11 -19 18 -37 16 -41 -2 -3
13 -15 34 -28 27 -17 44 -40 66 -89 16 -36 44 -81 62 -100 30 -32 33 -40 33
-98 0 -34 5 -66 11 -69 12 -8 53 -97 62 -135 4 -14 18 -38 32 -54 22 -25 45
-82 45 -110 0 -14 78 -164 118 -226 25 -39 35 -65 33 -89 -1 -18 3 -39 10 -47
6 -8 9 -14 6 -14 -3 0 23 -63 58 -140 54 -118 64 -149 66 -202 1 -35 5 -67 9
-73 10 -13 22 -62 26 -105 17 -162 30 -226 61 -287 21 -44 28 -73 29 -129 1
-40 5 -77 7 -82 3 -4 5 -22 5 -40 -1 -17 6 -41 14 -54 15 -22 9 -51 -15 -69
-13 -10 -3 -60 15 -70 17 -9 21 -49 5 -49 -4 0 -6 -4 -3 -9 3 -5 -1 -28 -10
-52 -8 -24 -17 -57 -19 -74 -6 -40 -13 -72 -21 -97 -10 -32 -7 -89 5 -101 15
-15 14 -97 -5 -202 -8 -49 -16 -97 -16 -105 0 -8 -5 -21 -11 -27 -5 -7 -7 -13
-4 -13 4 0 0 -18 -8 -40 -8 -22 -12 -40 -8 -40 3 0 0 -7 -7 -15 -7 -8 -10 -15
-7 -15 3 0 -1 -21 -9 -47 -17 -56 -34 -155 -40 -237 -3 -33 -6 -62 -8 -65 -2
-3 0 -15 4 -26 5 -13 0 -34 -16 -62 -13 -24 -22 -43 -19 -43 2 0 -3 -16 -11
-37 -9 -20 -18 -81 -21 -137 -2 -56 -9 -117 -15 -136 -12 -39 -64 -120 -78
-120 -13 0 -24 -40 -21 -77 2 -32 -17 -69 -61 -117 -10 -11 -19 -26 -19 -33
-1 -7 -3 -17 -4 -23 -1 -5 -3 -14 -4 -18 0 -5 -21 -30 -46 -55 -25 -26 -45
-50 -45 -53 0 -3 -6 -11 -12 -19 -7 -7 -38 -41 -68 -75 -124 -141 -142 -158
-197 -186 -64 -32 -123 -88 -123 -117 0 -12 -17 -25 -54 -42 -29 -13 -78 -48
-108 -78 -30 -29 -88 -79 -129 -110 -41 -31 -90 -73 -109 -92 -19 -19 -40 -35
-47 -35 -7 0 -13 -4 -13 -9 0 -5 -12 -11 -27 -14 -29 -6 -186 -95 -191 -109
-2 -4 -8 -8 -13 -8 -6 0 -35 -11 -65 -25 -30 -14 -57 -25 -59 -25 -7 0 -206
-93 -270 -126 -106 -55 -170 -89 -175 -94 -15 -15 -212 -82 -255 -87 -22 -3
-55 -14 -73 -25 -48 -29 -99 -38 -155 -27 -39 7 -52 6 -64 -6 -8 -8 -26 -15
-41 -16 -51 -1 -87 -10 -126 -30 -21 -11 -45 -18 -52 -15 -8 3 -14 2 -14 -2 0
-4 -26 -6 -58 -5 -54 1 -118 -10 -199 -36 -18 -5 -33 -7 -33 -4 0 3 -6 0 -14
-6 -16 -13 -97 -17 -144 -6 -24 5 -46 0 -89 -20 -84 -39 -108 -45 -203 -51
-47 -2 -116 -6 -155 -9 -66 -4 -71 -3 -94 23 -35 40 -52 88 -52 146 -1 41 -6
56 -26 78 -29 30 -34 76 -9 90 14 8 14 11 1 32 -24 36 -37 104 -38 191 -1 58
8 174 19 245 3 19 7 130 8 245 3 193 8 270 22 318 3 10 0 48 -7 83 -12 60 -11
66 8 92 21 28 21 39 7 132 -3 19 -7 107 -9 195 -4 173 7 249 61 420 33 108 33
146 -1 228 -9 21 -13 43 -9 49 4 6 7 24 6 39 0 16 4 29 10 29 7 0 7 4 -1 13
-6 8 -9 16 -7 18 2 2 7 45 10 94 5 67 15 113 40 179 26 69 33 99 29 136 -4 39
-1 51 16 67 20 19 21 35 5 86 -4 12 -8 37 -9 57 -2 19 -5 46 -9 60 -24 98 -24
292 1 470 10 66 9 398 0 445 -5 22 -10 49 -12 60 -2 11 -6 30 -9 42 -2 12 0
37 5 55 20 70 24 108 23 258 -1 161 -8 254 -25 296 -14 38 -11 58 11 84 14 16
19 33 16 49 -3 15 -8 44 -12 66 -4 22 -8 171 -9 330 -1 280 -6 356 -28 383 -5
6 -7 12 -4 12 3 0 1 15 -4 33 -16 52 -19 68 -25 152 -4 44 -8 81 -9 83 -2 2 3
18 10 36 12 29 12 76 0 96 -7 11 -6 563 1 612 4 26 1 83 -6 130 -8 46 -14 101
-15 123 -2 40 11 94 23 96 4 0 16 2 27 4 11 2 38 7 60 10 22 3 63 9 90 13 63
11 134 5 162 -13z m-794 -10 c12 -5 15 -15 12 -31 -3 -13 -7 -35 -10 -50 -4
-16 1 -35 14 -52 53 -75 64 -106 67 -187 4 -99 12 -150 29 -192 12 -28 12 -37
-3 -65 -18 -35 -20 -118 -8 -288 3 -47 8 -173 11 -280 2 -107 7 -206 9 -220 5
-26 15 -147 22 -265 4 -72 5 -86 3 -107 -1 -7 3 -33 9 -57 11 -45 9 -147 -3
-191 -7 -25 -7 -30 -5 -65 2 -39 1 -140 -1 -167 -1 -13 5 -92 15 -208 19 -205
21 -336 14 -785 -2 -110 -1 -220 2 -245 3 -25 1 -63 -5 -85 -16 -56 -7 -153
17 -198 10 -20 6 -183 -6 -237 -7 -27 -16 -72 -21 -105 -4 -23 -27 -85 -37
-101 -9 -14 -22 -139 -20 -189 4 -90 1 -119 -21 -186 -20 -59 -23 -86 -20
-162 5 -116 4 -270 -1 -322 -4 -36 -13 -80 -16 -80 0 0 -3 -29 -6 -65 -5 -79
-5 -140 1 -390 2 -107 4 -206 5 -219 0 -13 -11 -44 -25 -68 -21 -34 -24 -47
-15 -63 8 -15 8 -20 -2 -20 -9 0 -9 -3 -1 -11 7 -7 8 -21 3 -40 -5 -16 -7 -29
-4 -29 2 0 -2 -13 -11 -30 -17 -33 -20 -106 -5 -145 7 -20 6 -32 -6 -50 -9
-14 -15 -43 -14 -72 1 -57 1 -60 -4 -239 -2 -78 0 -161 4 -185 5 -24 11 -60
15 -79 13 -71 13 -197 1 -260 -6 -36 -11 -95 -10 -130 l3 -65 -46 -1 c-24 0
-48 -6 -52 -12 -14 -23 -99 -35 -161 -22 -47 10 -71 10 -124 -1 -52 -10 -75
-10 -118 0 -29 7 -71 10 -93 6 -81 -12 -97 -13 -130 -4 -52 15 -57 34 -28 104
25 59 25 60 8 108 -13 37 -16 61 -10 100 8 55 8 103 2 312 -3 72 0 135 5 142
5 7 5 14 -1 17 -6 4 -6 17 1 37 10 28 15 181 9 296 -1 35 4 67 18 98 11 25 17
45 13 45 -4 0 -7 15 -6 33 0 17 -6 58 -13 90 -8 35 -10 65 -4 75 25 50 42 180
29 229 -7 25 -3 43 18 90 30 64 31 67 20 105 -5 15 -3 42 4 62 10 32 14 156
11 401 -1 55 1 111 4 125 2 13 7 42 11 65 3 22 10 45 15 51 5 6 7 13 4 16 -3
3 4 27 16 53 15 35 21 67 20 112 -1 39 4 75 13 92 35 66 49 265 33 450 -5 52
-2 72 15 104 11 22 21 63 24 91 2 28 5 62 8 76 3 14 7 42 10 64 4 21 10 45 15
54 5 8 5 27 1 41 -9 32 -6 93 7 141 9 31 5 44 -28 111 -36 73 -37 78 -24 115
7 21 11 58 8 84 -11 96 -4 231 16 295 11 35 17 74 14 87 -14 52 -12 343 3 408
9 36 15 73 15 83 0 9 4 17 9 17 4 0 7 8 6 17 -2 10 2 38 9 63 19 75 18 150 -5
239 -23 89 -27 164 -16 301 14 161 15 223 5 274 -30 156 -19 233 40 290 28 27
28 29 16 74 -6 26 -11 54 -10 62 10 64 14 80 21 92 4 7 9 120 11 253 2 207 6
290 13 290 1 0 3 14 4 30 2 17 6 44 9 60 4 17 9 44 12 60 6 39 11 63 20 98 l7
27 108 -6 c86 -5 113 -3 136 9 29 16 45 16 77 2z"/>
<path d="M33340 23668 c-40 -9 -48 -12 -110 -31 -45 -14 -105 -15 -190 -2 -73
12 -169 8 -187 -6 -10 -9 -45 -14 -97 -14 -76 -1 -114 -7 -135 -19 -26 -16
-110 -17 -147 -1 -47 21 -255 28 -324 11 -25 -6 -54 -11 -65 -11 -32 1 -115
27 -115 36 0 12 -68 4 -105 -12 -16 -6 -39 -14 -49 -16 -11 -2 -25 -8 -33 -14
-7 -6 -13 -8 -13 -5 0 4 -10 1 -22 -5 -12 -6 -81 -13 -157 -15 -194 -6 -261
-14 -261 -33 0 -10 -23 -13 -85 -11 -95 2 -150 1 -202 -4 -29 -2 -88 3 -131
12 -96 20 -143 9 -203 -45 -33 -30 -39 -41 -39 -77 0 -89 34 -144 105 -171 23
-9 45 -15 51 -14 5 1 11 0 14 -1 27 -10 219 -14 285 -5 93 12 124 16 156 19
20 2 40 6 45 9 5 3 38 8 74 12 35 3 68 8 72 11 10 7 169 13 184 7 9 -3 6 -21
-11 -71 -13 -37 -27 -85 -31 -107 -4 -22 -8 -46 -10 -52 -1 -7 -18 -31 -38
-54 -19 -23 -33 -46 -30 -51 3 -5 -9 -22 -26 -38 -28 -26 -32 -36 -34 -92 -2
-40 -13 -86 -30 -126 -15 -35 -27 -82 -27 -105 0 -23 1 -61 1 -84 0 -24 -5
-64 -11 -90 -6 -27 -13 -64 -16 -83 -2 -19 -16 -59 -29 -89 -13 -30 -27 -72
-31 -95 -3 -23 -14 -59 -24 -80 -9 -22 -15 -49 -12 -60 10 -40 4 -74 -31 -157
-19 -47 -48 -150 -65 -229 -28 -134 -52 -235 -67 -285 -4 -11 -8 -47 -10 -79
-4 -78 -10 -100 -41 -149 -23 -35 -27 -55 -30 -127 -3 -103 -11 -150 -23 -150
-6 0 -9 -3 -8 -7 2 -5 -7 -24 -19 -43 -12 -19 -33 -76 -47 -125 -29 -100 -36
-117 -84 -193 -20 -32 -35 -71 -38 -100 -7 -61 -52 -198 -70 -213 -8 -6 -14
-19 -14 -28 0 -9 -4 -21 -9 -26 -15 -17 -63 -175 -57 -190 3 -8 2 -15 -2 -15
-4 0 -7 -17 -7 -37 0 -21 -2 -40 -5 -43 -20 -20 -50 -97 -65 -170 -2 -8 -17
-71 -33 -140 -17 -69 -33 -141 -37 -160 -10 -51 -71 -175 -107 -215 -20 -23
-28 -42 -25 -55 3 -11 1 -22 -4 -25 -4 -3 -6 -12 -3 -20 3 -7 -11 -49 -31 -92
-80 -168 -84 -179 -110 -309 -3 -12 -20 -44 -39 -71 -36 -53 -75 -133 -96
-198 -7 -22 -15 -44 -19 -50 -3 -5 -7 -14 -8 -20 -1 -5 -16 -54 -33 -109 -16
-54 -30 -113 -30 -131 0 -52 -61 -219 -90 -245 -17 -15 -209 -543 -225 -616
-2 -11 -13 -46 -25 -79 -11 -33 -22 -67 -24 -75 -2 -8 -26 -82 -54 -165 -49
-149 -110 -286 -134 -301 -13 -8 -80 -12 -328 -17 -91 -2 -185 -7 -210 -11
-56 -10 -150 -45 -150 -57 0 -5 -4 -9 -8 -9 -5 0 -10 19 -11 43 -1 23 -4 56
-6 72 -3 17 -7 66 -10 109 -3 44 -7 87 -10 97 -3 10 -8 26 -10 36 -2 10 -16
47 -31 83 -15 36 -27 70 -27 77 0 6 -15 20 -34 30 -18 9 -33 21 -33 25 0 3 -8
9 -18 12 -10 4 -45 31 -78 61 -73 68 -95 81 -159 88 -27 3 -61 9 -75 12 -14 3
-43 8 -64 10 -21 3 -43 8 -48 11 -5 3 -26 -5 -46 -19 -24 -16 -51 -25 -77 -25
-22 -1 -54 -6 -70 -13 -17 -7 -42 -12 -57 -13 -15 -1 -37 -13 -52 -28 -14 -16
-33 -28 -43 -28 -37 0 -116 -36 -143 -65 -16 -16 -46 -49 -68 -72 -21 -24 -41
-40 -45 -37 -3 3 -4 -13 -1 -35 2 -22 -1 -43 -6 -46 -6 -4 -8 -11 -5 -16 4 -5
2 -9 -2 -9 -38 0 -52 -314 -17 -371 4 -7 8 -32 19 -127 1 -13 19 -40 40 -60
21 -21 50 -53 64 -72 48 -64 71 -81 142 -105 39 -14 74 -24 77 -24 18 3 32 -2
46 -16 24 -24 77 -42 116 -40 19 1 73 15 120 29 112 36 188 57 225 62 17 2 47
6 69 9 21 3 48 11 60 17 11 7 24 12 28 13 3 0 22 14 41 30 35 31 67 49 104 60
18 5 21 12 18 40 -4 25 3 49 21 82 35 64 44 72 40 37 -2 -32 18 -90 41 -116
31 -35 152 -74 218 -70 94 5 209 18 260 29 51 10 158 11 183 2 15 -6 52 -17
81 -25 51 -14 58 -13 100 5 26 11 66 22 91 26 25 4 59 10 75 12 17 3 314 6
660 7 l630 2 50 -25 c40 -20 68 -25 140 -27 141 -4 179 -11 242 -42 63 -32
117 -43 233 -47 41 -2 84 -5 94 -7 28 -7 113 81 120 124 4 18 8 45 10 60 3 15
8 32 11 38 7 12 -103 120 -122 120 -7 0 -13 3 -13 8 0 17 -51 30 -83 21 -49
-14 -197 -20 -239 -8 -53 14 -99 55 -93 82 3 12 7 47 9 77 2 30 8 56 13 57 4
2 8 56 7 120 -1 100 1 122 18 152 11 20 25 39 32 43 6 4 8 8 3 8 -4 0 0 15 9
33 13 24 18 63 19 152 3 131 17 226 38 259 9 13 13 45 12 81 0 33 7 91 17 128
10 38 20 74 21 80 1 6 19 44 40 85 36 68 43 100 34 144 -2 10 -6 20 -10 24 -3
4 0 21 7 39 14 33 41 144 38 156 -1 4 3 33 8 65 13 78 23 217 24 336 1 54 3
98 6 98 3 0 5 33 6 73 0 39 4 97 8 127 l7 56 117 0 c64 0 131 3 147 7 17 3 41
8 55 11 87 19 122 24 209 31 42 4 90 13 106 20 55 26 140 57 165 61 14 3 39 8
55 13 17 4 82 6 145 4 63 -2 150 -4 192 -4 42 0 98 -6 125 -13 26 -7 93 -12
148 -11 56 1 115 -3 135 -10 32 -11 121 -11 225 -1 22 3 101 7 175 11 74 4
141 8 148 11 7 2 15 -2 17 -9 8 -23 17 -72 20 -117 12 -137 31 -230 62 -300
13 -30 26 -70 29 -90 3 -19 7 -46 9 -58 2 -13 5 -56 6 -95 3 -87 16 -143 42
-181 19 -28 21 -43 14 -116 -2 -19 2 -48 8 -65 7 -16 15 -71 17 -121 3 -78 9
-100 40 -166 20 -42 34 -79 30 -82 -3 -3 0 -6 7 -6 7 0 10 -4 7 -8 -2 -4 4
-34 15 -67 10 -32 17 -61 14 -63 -3 -3 0 -11 6 -19 6 -7 9 -13 6 -13 -2 0 6
-37 20 -82 13 -46 25 -91 28 -101 2 -10 18 -59 35 -110 17 -51 29 -95 28 -98
-2 -3 3 -13 10 -21 17 -21 68 -183 77 -242 1 -12 5 -28 8 -36 4 -14 32 -113
42 -150 2 -8 17 -55 33 -105 18 -55 30 -115 31 -155 1 -43 9 -76 22 -98 26
-45 25 -72 -3 -73 -13 -1 -36 -3 -53 -4 -16 -2 -111 -6 -210 -9 -266 -9 -466
-17 -500 -21 -16 -1 -42 -3 -57 -4 -21 -1 -28 -6 -28 -21 0 -11 -5 -20 -10
-20 -6 0 -9 -3 -8 -7 1 -5 -6 -20 -16 -36 -15 -21 -17 -38 -12 -74 7 -54 26
-78 64 -86 16 -3 34 -17 42 -32 l14 -26 200 2 c154 1 217 6 270 19 59 15 192
20 251 9 6 -1 29 2 53 5 29 5 64 1 115 -13 66 -19 101 -21 399 -20 204 0 329
3 333 9 4 6 10 8 15 5 5 -3 30 0 57 6 26 6 57 12 68 14 117 21 150 25 215 26
59 0 88 -5 138 -26 91 -37 181 -51 347 -54 145 -2 146 -2 166 23 11 13 44 37
75 52 47 23 54 30 48 48 -6 17 -7 74 -2 115 2 25 -5 41 -24 47 -29 9 -71 52
-63 64 3 6 15 10 26 10 11 0 32 6 47 13 15 7 45 15 66 16 22 2 46 9 54 17 10
10 29 13 64 10 27 -3 73 1 101 9 29 7 69 16 89 19 21 3 81 15 134 27 54 11
122 23 153 25 105 9 452 0 471 -11 6 -3 10 -2 10 3 0 5 15 7 33 5 39 -6 36 -6
122 3 77 8 511 10 535 2 8 -2 32 -12 54 -21 51 -22 101 -21 199 4 68 17 132
23 200 17 6 -1 48 2 91 6 82 7 131 23 131 43 0 7 16 28 36 46 31 29 46 58 50
94 1 5 9 24 20 44 18 36 18 36 -6 55 -12 10 -28 38 -35 62 -10 38 -17 46 -55
63 -49 22 -67 20 -159 -18 -33 -14 -68 -27 -78 -29 -10 -2 -28 -7 -40 -10
-102 -25 -142 -9 -135 55 2 25 -4 49 -22 81 -25 44 -26 52 -28 250 -4 232 -6
270 -13 270 -3 0 -6 8 -7 18 -1 9 -7 40 -13 67 -18 84 -22 115 -25 245 -2 88
-7 138 -20 170 -9 25 -19 63 -21 85 -7 73 -9 80 -27 97 -10 9 -17 18 -16 20 1
2 -5 19 -13 38 -13 30 -21 66 -44 195 -8 41 -14 81 -19 130 -7 61 -14 112 -20
145 -3 14 -7 48 -11 75 -8 65 -10 75 -22 106 -8 21 -7 29 9 42 15 13 17 23 11
49 -7 32 -7 183 -1 603 3 216 -3 405 -12 405 -3 0 -4 28 -2 63 2 34 5 127 7
207 4 133 3 151 -20 220 -25 77 -29 148 -11 185 15 28 10 77 -13 130 -11 25
-17 45 -13 45 3 0 0 7 -7 15 -7 8 -10 15 -8 15 3 0 1 21 -4 48 -25 131 -25
128 -43 542 -7 143 -8 164 -29 310 -3 19 -8 52 -11 74 -3 21 -7 41 -9 45 -2 3
-7 29 -10 56 -3 28 -8 61 -11 75 -2 13 -7 40 -10 60 -3 20 -7 46 -10 59 -16
85 -27 428 -14 473 4 14 5 29 2 32 -3 2 -7 56 -9 118 -9 247 -14 294 -36 373
-7 28 -13 57 -12 65 1 8 2 22 3 31 0 9 9 27 19 38 17 22 18 22 77 5 140 -39
252 -47 365 -26 30 5 81 10 114 10 32 0 61 4 65 10 9 15 98 62 104 56 12 -12
18 63 7 91 -13 32 -18 53 -27 100 -5 31 -10 40 -21 41 -4 0 -32 6 -63 12 -98
22 -105 22 -142 3 -36 -18 -39 -18 -75 -1 -20 10 -57 21 -82 26 -55 9 -180 11
-186 3 -2 -4 -16 -4 -31 -2 -16 2 -34 4 -40 4 -64 -3 -86 -2 -138 4 -33 4 -84
16 -113 27 -40 15 -79 20 -150 20 -68 0 -108 5 -137 18 -61 26 -131 40 -225
45 -47 2 -103 6 -125 9 -144 17 -211 18 -249 2 -22 -9 -62 -19 -90 -22 -106
-11 -122 -13 -149 -23 -15 -6 -27 -9 -27 -6 0 2 -30 -9 -67 -25 -150 -63 -169
-140 -63 -251 48 -50 49 -50 135 -34 22 4 48 9 58 11 9 1 66 17 125 34 101 28
225 41 250 27 5 -4 24 -9 42 -12 45 -8 50 -12 43 -38 -3 -12 -6 -95 -8 -184
-2 -89 -6 -167 -10 -173 -4 -7 -9 -65 -10 -129 -2 -64 -7 -165 -11 -226 -9
-126 -9 -190 -1 -295 3 -50 1 -80 -6 -89 -8 -9 -12 -58 -13 -130 -1 -90 -5
-123 -19 -149 -14 -28 -16 -48 -10 -123 3 -52 2 -103 -4 -122 -19 -63 -29
-392 -15 -547 5 -68 7 -80 23 -143 5 -22 6 -50 1 -65 -5 -15 -11 -55 -14 -89
-3 -35 -10 -72 -16 -83 -6 -11 -9 -20 -6 -20 2 0 -2 -20 -9 -45 -10 -33 -13
-104 -11 -277 2 -128 6 -244 10 -258 8 -30 9 -137 2 -149 -4 -5 -9 -33 -12
-63 -3 -29 -8 -56 -10 -59 -3 -6 -12 -51 -20 -109 -3 -23 -7 -99 -19 -331 -4
-81 -9 -133 -19 -192 -1 -7 -6 -20 -12 -30 -7 -12 -8 -37 -3 -68 9 -56 6 -81
-18 -135 -9 -22 -17 -41 -18 -44 -1 -3 -7 -18 -14 -35 -7 -16 -15 -41 -17 -55
-2 -14 -7 -36 -10 -50 -3 -13 -7 -54 -10 -90 -8 -128 -14 -195 -19 -220 -8
-40 -28 -316 -27 -370 4 -194 2 -246 -14 -272 -11 -18 -16 -137 -6 -154 7 -12
7 -27 0 -43 -17 -46 -27 -157 -16 -177 5 -9 3 -92 -6 -254 -3 -52 -1 -110 3
-127 6 -21 6 -33 0 -33 -6 0 -6 -7 0 -19 6 -10 8 -21 5 -24 -3 -2 -7 -20 -9
-38 -2 -19 -9 -62 -15 -95 -10 -52 -9 -66 4 -92 21 -41 21 -45 -14 -82 -16
-18 -31 -41 -31 -51 -1 -10 -3 -23 -4 -29 -1 -5 -3 -14 -4 -20 -2 -16 -193
-72 -255 -74 -41 -2 -61 -7 -67 -18 -9 -16 -27 -22 -99 -33 -19 -3 -46 -8 -60
-10 -14 -3 -36 -7 -49 -10 -75 -14 -186 -66 -199 -92 -13 -25 -6 -76 17 -136
10 -27 10 -28 -11 -22 -44 12 -78 28 -78 35 0 8 -44 28 -77 34 -120 23 -174
25 -243 10 -30 -7 -57 -11 -59 -8 -2 2 -9 0 -15 -5 -11 -8 -72 -30 -91 -32 -5
-1 -17 -5 -26 -10 -9 -5 -32 -11 -50 -13 -19 -3 -52 -8 -74 -11 -22 -4 -100
-8 -175 -9 -74 -1 -142 -5 -151 -10 -12 -5 -18 -1 -24 16 -4 13 -6 28 -5 33 8
35 3 55 -26 97 -32 46 -74 128 -79 158 -2 8 -4 16 -5 18 -5 5 -19 75 -24 117
-2 17 -6 37 -10 45 -3 8 -7 24 -9 35 -2 11 -9 34 -16 50 -36 91 -66 161 -72
170 -9 12 -42 183 -40 205 0 8 1 49 1 90 1 81 6 72 -77 140 -39 33 -54 61 -42
82 6 11 5 21 -4 30 -20 19 -25 41 -17 63 4 11 4 25 0 30 -21 26 -50 88 -50
103 0 10 -4 22 -9 27 -5 6 -15 37 -24 70 -36 144 -68 258 -87 307 -14 38 -20
75 -19 128 1 50 -7 108 -24 175 -14 55 -28 120 -32 145 -3 25 -8 61 -11 80 -3
19 -7 62 -10 94 -3 33 -10 68 -15 77 -5 10 -9 28 -9 42 0 13 -3 27 -7 30 -18
19 -54 151 -60 219 -5 73 -4 80 21 116 30 44 33 76 10 121 -14 29 -14 34 -1
49 14 16 9 20 -49 57 -37 23 -67 50 -73 65 -5 14 -12 70 -14 125 -3 79 -10
113 -30 162 -48 112 -66 223 -43 258 20 30 20 30 0 50 -11 11 -18 36 -19 73
-2 55 -6 72 -25 117 -13 30 -67 177 -74 200 -3 11 -8 38 -11 60 -11 71 -23
103 -55 151 -17 26 -29 54 -27 63 2 9 -7 40 -20 70 -27 62 -30 82 -19 129 7
29 4 36 -29 69 -48 48 -52 58 -60 138 -9 101 -14 139 -30 210 -4 15 -31 112
-53 190 -11 39 -32 111 -46 160 -15 50 -36 131 -47 180 -11 50 -28 104 -38
121 -28 47 -68 166 -85 254 -8 41 -13 63 -26 110 -7 25 -13 52 -15 60 -2 9
-19 58 -39 110 -50 130 -75 224 -76 285 0 19 -11 40 -29 58 -15 15 -34 46 -40
70 -7 23 -18 51 -23 61 -18 33 -31 236 -17 250 7 7 20 10 99 22 30 4 57 8 60
9 3 1 32 5 65 9 32 4 66 9 75 11 79 14 109 19 130 21 14 1 25 3 25 4 0 2 14 4
30 5 17 2 30 4 30 5 0 1 15 4 34 7 75 10 354 62 358 66 2 3 -6 26 -18 53 -13
26 -22 60 -21 76 2 25 0 27 -20 19 -29 -10 -44 -5 -80 30 -38 36 -69 46 -145
47 -35 0 -85 8 -113 17 -35 12 -63 14 -97 9 -60 -9 -165 -11 -218 -3 -22 3
-56 2 -75 -3z m-1132 -414 c31 -3 60 -10 63 -16 4 -6 5 -27 4 -47 -4 -38 -4
-41 -25 -111 -7 -25 -14 -57 -16 -73 -2 -15 -6 -39 -9 -55 -3 -15 -8 -61 -10
-102 -14 -259 -20 -310 -36 -342 -5 -9 -11 -42 -14 -73 -3 -31 -8 -62 -12 -68
-4 -7 -8 -16 -8 -22 -1 -5 -12 -32 -25 -60 -13 -27 -25 -54 -26 -60 -1 -5 -5
-21 -7 -35 -23 -103 -39 -192 -42 -230 -2 -25 -4 -45 -5 -45 -1 0 -3 -25 -5
-55 -13 -196 -40 -326 -93 -440 -25 -55 -29 -76 -27 -133 2 -49 -3 -83 -17
-120 -11 -29 -22 -75 -24 -103 -1 -28 -12 -66 -23 -86 -12 -19 -24 -62 -27
-99 -7 -70 -18 -97 -46 -117 -15 -11 -16 -17 -7 -34 8 -15 7 -30 -5 -62 -8
-22 -18 -66 -22 -96 -3 -30 -15 -75 -27 -100 -14 -32 -21 -69 -23 -130 -2 -78
-5 -109 -19 -180 -3 -14 -7 -36 -10 -50 -3 -14 -9 -47 -15 -75 -16 -76 -17
-84 -30 -170 -18 -128 -20 -136 -35 -171 -8 -19 -12 -34 -9 -34 3 0 0 -8 -5
-17 -10 -19 -19 -63 -26 -128 -14 -126 -17 -150 -20 -155 -2 -3 -6 -23 -9 -45
-13 -85 -19 -111 -29 -130 -6 -11 -12 -67 -13 -125 -2 -58 -7 -125 -11 -150
-5 -25 -5 -61 -1 -81 4 -20 6 -67 3 -105 -4 -66 -7 -85 -22 -136 -3 -13 -7
-88 -9 -167 -3 -161 -5 -172 -40 -244 -34 -69 -41 -98 -45 -178 -1 -30 -11
-76 -22 -104 -18 -46 -20 -67 -13 -135 2 -14 -1 -31 -7 -37 -5 -7 -7 -13 -3
-13 3 0 -4 -24 -15 -52 -11 -29 -21 -55 -21 -58 -2 -13 -21 -62 -38 -96 -12
-23 -16 -42 -11 -52 9 -17 4 -50 -12 -70 -6 -7 -11 -53 -12 -101 -1 -48 -6
-94 -11 -102 -16 -27 -23 -87 -12 -117 7 -21 -22 -118 -40 -132 -8 -5 -28 -39
-50 -84 -11 -20 -12 -37 -6 -60 6 -17 6 -53 2 -81 -5 -27 -9 -58 -10 -67 -1
-9 -18 -24 -38 -33 -32 -14 -41 -14 -93 -1 -75 20 -219 11 -269 -15 -10 -5
-18 -8 -18 -5 0 3 -14 1 -32 -4 -17 -5 -48 -12 -70 -15 -21 -3 -57 -8 -80 -12
-24 -3 -77 -5 -118 -4 -85 3 -246 4 -365 2 -96 -2 -126 3 -142 25 -13 18 -7
40 19 66 10 10 18 29 18 43 0 14 12 54 26 89 14 36 27 71 28 78 2 7 8 27 15
43 7 17 30 84 52 150 22 66 43 129 48 140 5 11 29 72 54 135 98 248 131 328
172 415 23 50 41 102 41 118 -1 15 1 27 5 27 4 0 5 8 2 19 -5 21 31 145 53
178 8 13 12 23 8 23 -3 0 7 17 23 38 32 42 49 75 57 114 3 14 22 41 40 59 19
18 33 36 31 40 -3 4 4 35 14 68 10 34 16 61 13 61 -3 0 3 9 13 20 10 11 15 20
12 20 -6 0 10 33 79 160 8 14 14 30 14 36 0 6 25 87 56 180 58 175 63 191 71
236 3 17 20 36 44 53 22 14 37 30 34 36 -26 42 -8 126 38 175 26 28 29 40 32
110 4 78 9 120 22 159 4 11 7 22 8 25 6 37 54 157 79 200 40 68 52 103 55 157
3 66 46 167 82 193 4 3 7 23 7 45 -1 22 3 60 6 85 8 46 15 68 79 243 20 53 34
97 30 97 -3 0 0 6 6 14 6 7 14 42 17 77 8 93 21 134 71 232 40 79 45 95 44
150 -3 113 -2 130 7 136 15 10 35 54 38 83 1 16 9 39 17 52 28 42 46 134 43
220 -2 73 1 88 30 151 39 85 81 207 94 272 5 27 11 57 13 68 3 11 8 38 12 60
5 22 9 45 10 50 2 6 8 37 15 70 7 33 22 76 33 95 16 26 22 52 22 106 1 40 6
78 12 86 16 20 59 129 67 171 4 20 11 37 16 37 6 0 10 7 10 15 0 8 3 15 8 15
11 0 33 39 38 69 8 47 14 58 38 71 21 11 23 16 15 37 -19 52 -19 84 1 128 11
24 20 49 20 54 0 6 5 11 10 11 6 0 10 6 10 13 0 29 20 35 67 21 24 -7 70 -16
101 -20z m5544 -21 c31 -35 40 -67 38 -127 -5 -173 -2 -192 37 -289 30 -73 37
-169 19 -249 -12 -52 -14 -482 -2 -588 12 -117 16 -140 35 -205 11 -38 17 -73
15 -77 -3 -4 -1 -8 3 -8 5 0 10 -17 11 -39 2 -21 5 -49 8 -62 14 -72 24 -180
29 -344 6 -199 15 -377 20 -405 3 -24 15 -132 20 -195 2 -16 4 -30 5 -30 1 0
3 -13 5 -30 12 -91 18 -117 50 -212 25 -74 36 -197 20 -223 -19 -30 -24 -389
-6 -460 11 -46 8 -326 -6 -525 -12 -186 -7 -433 12 -535 9 -52 19 -104 21
-115 2 -11 5 -31 7 -45 2 -14 7 -38 10 -55 4 -16 9 -46 12 -65 4 -19 11 -55
17 -80 5 -25 10 -74 10 -109 -1 -40 6 -82 19 -113 11 -28 21 -75 23 -106 2
-32 18 -95 36 -142 44 -120 46 -133 55 -360 6 -174 9 -211 22 -236 30 -57 41
-160 28 -259 -4 -33 -7 -64 -7 -70 -1 -28 15 -99 28 -130 11 -27 11 -35 2 -36
-7 -1 -22 -3 -33 -4 -61 -8 -135 -18 -175 -22 -61 -6 -543 -11 -553 -6 -4 3
-60 6 -125 8 -64 1 -136 3 -160 4 l-43 1 6 163 c3 89 8 178 10 197 2 19 6 58
10 85 5 47 15 180 17 235 1 14 -3 34 -8 45 -5 11 -8 67 -8 125 0 97 3 138 19
245 8 51 10 60 30 155 9 44 15 93 20 180 3 47 8 91 10 98 2 6 1 12 -3 12 -14
0 -21 219 -9 300 3 25 9 72 12 105 4 33 8 71 10 85 2 14 7 52 10 85 4 33 8 62
10 66 2 3 7 21 10 40 3 18 18 61 32 94 25 58 30 89 24 165 -1 19 0 49 2 65 3
17 8 57 12 90 3 33 8 71 10 85 2 14 6 50 9 80 3 30 8 64 10 75 2 11 7 49 11
85 5 36 9 74 11 85 13 109 26 432 22 545 -5 116 -3 294 5 355 3 33 10 89 14
125 10 82 10 383 0 475 -15 140 -11 396 8 485 9 43 19 95 20 100 0 3 3 10 6
15 9 14 4 288 -5 303 -4 7 -3 12 3 12 6 0 6 11 1 29 -4 16 -7 31 -5 33 2 2 6
30 10 63 3 33 7 76 9 95 2 19 7 136 11 260 13 424 20 538 40 601 8 25 66 26
87 2z m-4974 -5 c7 -7 12 -19 12 -29 0 -9 9 -28 20 -42 11 -14 20 -32 20 -40
0 -9 16 -29 35 -45 20 -16 37 -38 40 -50 2 -12 6 -26 9 -30 5 -8 8 -24 22 -97
9 -52 35 -139 52 -175 9 -19 17 -39 19 -45 15 -58 58 -166 77 -196 24 -35 62
-137 71 -189 2 -14 9 -56 15 -95 12 -85 15 -98 31 -155 7 -25 13 -48 13 -52 1
-3 4 -10 9 -14 4 -4 7 -15 7 -25 0 -10 6 -24 14 -31 25 -25 35 -73 40 -188 2
-47 9 -100 14 -118 6 -18 11 -35 11 -37 0 -8 38 -109 59 -157 22 -47 34 -78
37 -93 2 -5 8 -29 14 -53 7 -23 14 -57 16 -75 2 -17 11 -57 20 -87 9 -30 18
-62 20 -70 2 -8 4 -15 5 -15 1 0 3 -7 5 -15 2 -8 33 -96 70 -195 71 -193 124
-358 132 -415 3 -19 17 -57 32 -85 15 -27 27 -57 26 -65 -1 -8 6 -31 16 -50
25 -53 31 -90 32 -211 0 -77 7 -141 23 -207 24 -104 54 -204 64 -212 4 -3 8
-31 9 -62 l2 -58 -33 -1 c-62 -1 -159 -15 -188 -26 -8 -3 -59 -7 -113 -9 -84
-3 -104 -1 -139 17 -29 15 -49 19 -76 14 -21 -4 -62 -6 -92 -5 -54 2 -356 2
-375 0 -60 -6 -221 17 -286 42 -23 8 -34 5 -75 -25 -140 -98 -222 -134 -319
-141 -69 -5 -138 -18 -190 -36 -58 -20 -103 -12 -123 21 -19 30 -23 134 -7
172 19 48 47 193 46 246 -3 197 -6 176 49 306 58 135 68 186 63 289 -4 77 -2
92 22 143 14 32 31 60 37 64 7 5 6 18 -3 45 -16 45 -14 90 5 119 11 17 46 111
52 140 1 6 18 64 38 129 20 66 38 129 41 140 3 20 4 23 6 29 16 50 45 230 42
267 -4 58 36 222 84 340 9 23 16 83 28 253 2 38 7 72 10 76 2 5 7 30 10 57 4
43 14 93 45 224 4 19 15 54 23 77 9 22 13 44 10 47 -4 3 -1 6 6 6 7 0 10 3 7
8 -2 4 2 34 10 67 24 105 31 164 38 346 3 70 9 98 35 153 17 37 31 70 31 72 0
5 12 20 38 49 6 7 12 17 12 22 0 10 37 34 70 44 35 10 35 10 48 -3z m-4558
-6396 c14 -6 59 -42 100 -81 l75 -71 -1 -67 c-1 -101 -46 -186 -126 -237 -26
-17 -62 -17 -135 -1 -13 3 -32 7 -43 9 -11 3 -25 8 -30 11 -22 14 -121 22
-160 13 -8 -2 -20 15 -31 42 -25 64 -19 141 17 215 15 33 27 67 26 75 -1 8 12
32 29 53 26 32 37 38 68 37 40 -1 67 3 76 12 9 9 107 1 135 -10z"/>
<path d="M23222 23320 c-43 -45 -43 -45 -239 -54 -44 -2 -85 -5 -90 -8 -4 -2
-62 -3 -128 -2 -113 2 -163 -5 -210 -27 -89 -41 -195 -49 -262 -18 -49 23 -94
26 -161 10 -30 -6 -47 -4 -76 10 -34 16 -36 16 -34 1 2 -13 -5 -17 -32 -18
-63 -2 -136 -42 -174 -94 l-34 -47 23 -58 c28 -68 56 -101 99 -115 53 -17 80
-18 119 -4 21 7 68 15 105 18 37 2 69 5 72 6 3 1 61 1 130 0 199 -3 241 -3
311 3 l66 6 -17 -67 c-10 -39 -18 -111 -20 -172 -4 -216 -11 -261 -57 -380
-14 -36 -15 -62 -13 -230 1 -48 -4 -91 -15 -120 -9 -25 -18 -83 -20 -130 -2
-47 -6 -98 -8 -115 -3 -16 -8 -59 -12 -95 -3 -36 -8 -81 -10 -100 -8 -66 -16
-155 -20 -220 -6 -108 -16 -223 -22 -265 -3 -22 -7 -85 -8 -140 -1 -55 -8
-116 -14 -135 -19 -57 -25 -192 -10 -252 15 -63 13 -119 -6 -165 -8 -18 -11
-33 -7 -33 4 0 2 -4 -3 -8 -32 -23 -46 -123 -51 -367 -4 -227 -11 -302 -34
-344 -6 -12 -7 -21 -3 -21 4 0 3 -4 -4 -8 -9 -6 -32 -96 -47 -188 -2 -12 -9
-32 -16 -44 -8 -15 -13 -92 -16 -224 -2 -111 -5 -221 -8 -246 -5 -58 -17 -166
-23 -205 -2 -16 -5 -82 -7 -145 -1 -64 -6 -121 -10 -128 -13 -21 -18 -55 -20
-137 -2 -44 -8 -92 -14 -106 -6 -15 -8 -30 -5 -33 4 -3 2 -6 -4 -6 -12 0 -12
-2 -17 -106 -3 -45 -14 -106 -25 -139 -22 -63 -30 -121 -34 -251 -2 -62 -8
-89 -25 -118 -20 -34 -21 -39 -7 -66 9 -17 16 -47 16 -67 0 -37 -9 -193 -12
-203 -1 -3 0 -9 1 -15 21 -107 17 -217 -14 -320 -17 -58 -29 -125 -33 -190 -5
-91 -22 -154 -41 -155 -4 -1 -24 -3 -44 -6 -21 -3 -55 0 -75 7 -54 18 -153 13
-225 -12 -68 -23 -107 -27 -156 -15 -31 7 -37 4 -105 -64 l-72 -71 0 -70 c0
-83 12 -98 100 -123 29 -9 60 -23 68 -30 12 -13 24 -12 89 9 196 62 361 67
675 19 23 -4 35 0 45 15 11 16 25 20 69 19 65 0 88 3 279 42 156 31 247 39
300 25 14 -4 71 -7 127 -7 106 0 149 -9 246 -52 98 -44 204 -69 268 -63 46 4
64 1 90 -15 35 -21 34 -21 65 35 17 31 30 34 62 11 26 -18 54 -25 102 -25 48
0 81 14 110 47 65 72 90 95 99 90 13 -9 24 11 14 27 -20 32 -24 131 -8 171
l14 33 -52 -3 c-29 -1 -70 4 -92 12 -36 12 -105 26 -130 27 -34 0 -106 -13
-124 -22 -28 -15 -57 -14 -75 4 -20 20 -31 19 -77 -7 -58 -32 -64 -21 -65 130
-1 128 -8 187 -23 207 -5 5 -9 46 -9 90 0 44 -5 102 -11 130 -5 27 -6 52 -2
55 16 12 27 58 21 93 -9 51 -5 89 17 167 11 34 9 118 -3 162 -18 69 -11 138
19 197 24 46 25 52 13 87 -11 32 -10 42 2 67 20 39 10 136 -19 202 -27 60 -26
102 7 174 16 35 22 64 19 85 -3 17 -8 45 -11 62 -3 17 -7 56 -8 86 -2 30 -6
60 -9 65 -4 6 -4 13 0 16 3 4 7 43 8 87 2 66 0 83 -14 93 -26 18 -38 45 -33
76 3 23 13 31 63 51 66 26 73 32 83 75 4 16 22 50 40 75 38 52 45 70 53 125 3
22 10 42 17 44 16 5 156 151 156 163 0 17 84 99 155 151 38 28 102 77 142 109
39 32 76 58 81 58 6 0 12 4 14 8 2 4 28 20 58 36 59 30 182 106 190 118 10 13
104 51 135 55 16 2 45 13 65 26 19 13 52 31 73 41 38 17 53 21 116 32 18 3 43
8 55 10 11 2 54 5 95 5 61 1 77 4 90 21 22 26 70 33 221 33 114 -1 198 -8 241
-21 10 -2 39 -25 65 -49 26 -25 54 -45 61 -45 7 0 13 -4 13 -10 0 -5 7 -10 15
-10 8 0 15 -4 15 -8 0 -5 18 -15 39 -22 84 -27 176 -146 191 -245 11 -69 15
-83 49 -184 48 -140 71 -271 49 -271 -5 0 -4 -9 2 -20 6 -11 8 -20 4 -20 -3 0
-2 -6 3 -12 18 -23 38 -94 48 -172 3 -21 8 -42 11 -48 3 -5 5 -68 4 -141 -1
-73 -3 -186 -4 -252 -1 -66 -5 -136 -9 -156 -6 -26 -4 -46 8 -75 21 -49 28
-90 29 -179 0 -69 -3 -91 -22 -190 -6 -27 -9 -85 -7 -129 2 -56 -2 -94 -15
-135 -19 -59 -36 -119 -44 -161 -3 -14 -7 -34 -9 -45 -3 -11 -8 -42 -11 -70
-4 -27 -9 -61 -11 -75 -2 -14 -7 -61 -10 -105 -4 -44 -8 -98 -10 -120 -2 -22
-6 -71 -9 -110 -14 -173 -16 -186 -42 -213 -13 -15 -24 -32 -24 -39 0 -7 -4
-13 -9 -13 -13 0 -29 -72 -23 -108 2 -18 8 -32 13 -32 5 0 -2 -21 -15 -47 -14
-27 -25 -61 -26 -78 0 -37 -3 -53 -20 -129 -12 -50 -18 -60 -44 -72 -29 -12
-110 -12 -164 0 -12 3 -47 -6 -77 -20 -92 -40 -141 -47 -350 -51 -110 -1 -213
-5 -230 -7 -16 -2 -40 -4 -53 -5 -14 -1 -26 -10 -31 -24 -5 -13 -21 -38 -36
-56 -23 -27 -26 -36 -17 -54 6 -12 19 -46 28 -75 31 -98 82 -135 175 -127 87
8 251 19 291 19 21 1 38 3 38 6 0 3 15 5 33 5 19 -1 58 7 88 17 67 22 167 45
237 52 30 3 58 8 62 11 5 3 11 1 14 -4 3 -4 23 -5 43 -2 40 7 240 6 283 -2 14
-2 40 2 58 9 25 10 39 11 60 2 15 -6 36 -12 47 -13 11 -2 45 -7 75 -12 30 -5
84 -8 120 -7 144 5 339 5 405 0 69 -5 71 -4 130 37 95 66 91 60 89 134 -2 41
-8 69 -17 77 -17 14 -73 88 -69 93 15 20 -30 63 -65 63 -16 -1 -50 -16 -78
-35 -27 -19 -52 -31 -55 -27 -5 7 -52 10 -160 10 -100 0 -130 -2 -130 -11 0
-5 -4 -6 -8 -3 -4 3 -26 7 -49 10 -22 2 -65 20 -97 41 -30 19 -59 36 -63 36
-18 0 -59 12 -68 20 -13 9 -9 143 4 168 5 9 8 48 6 86 -3 60 1 79 25 130 33
71 39 98 45 225 8 155 14 210 22 223 4 7 8 14 9 17 3 18 25 59 33 65 7 4 11
51 11 123 0 132 12 192 41 199 16 4 17 9 7 26 -19 36 -20 92 -4 141 10 30 17
86 17 158 2 88 6 122 22 157 18 41 19 51 7 96 -7 27 -13 70 -14 95 -1 25 -7
55 -14 67 -7 13 -12 57 -12 105 1 46 0 117 -1 158 -1 41 2 96 6 122 5 35 2 61
-10 95 -12 33 -18 87 -21 170 -4 138 -7 176 -24 248 -16 68 -16 68 -24 87 -4
9 -9 25 -11 35 -2 10 -4 18 -5 18 -2 0 -4 11 -15 55 -3 14 -8 54 -11 89 -5 45
-12 70 -25 80 -10 9 -20 32 -23 52 -6 37 -41 115 -82 180 -14 23 -19 40 -13
50 10 18 -15 59 -35 59 -18 0 -32 30 -35 73 -2 31 -37 68 -101 108 -30 18 -56
37 -58 41 -2 4 -10 8 -17 8 -7 0 -32 22 -54 49 -38 46 -87 77 -131 86 -28 5
-63 26 -82 48 -15 17 -32 20 -130 22 -62 1 -124 6 -138 10 -35 11 -285 14
-329 4 -20 -4 -61 -11 -91 -14 -30 -4 -64 -8 -75 -10 -11 -2 -39 -6 -63 -10
-24 -4 -51 -8 -60 -10 -9 -2 -24 -4 -33 -4 -9 -1 -34 -15 -55 -32 -23 -18 -46
-28 -57 -25 -10 2 -35 -5 -55 -16 -95 -55 -167 -87 -205 -93 -27 -5 -74 -30
-134 -71 -51 -35 -112 -69 -136 -75 -23 -7 -46 -16 -52 -19 -5 -4 -22 -10 -36
-13 -19 -5 -28 -15 -33 -37 -4 -22 -15 -35 -38 -45 -18 -7 -36 -11 -40 -9 -7
5 -88 -75 -88 -88 0 -4 -11 -8 -25 -8 -37 0 -125 -94 -125 -134 0 -19 -35 -53
-76 -72 -21 -10 -53 -46 -90 -102 -49 -72 -99 -129 -99 -113 0 3 -10 -1 -22
-7 -21 -12 -21 -11 -17 36 3 26 -1 75 -9 109 -19 78 -15 226 6 259 14 24 17
115 4 171 -7 32 -13 72 -12 88 8 132 17 240 22 248 3 5 6 41 8 80 2 58 -2 79
-21 115 -13 25 -21 49 -18 54 13 21 3 145 -14 190 -8 18 -8 38 -1 63 31 111
42 316 23 420 -17 88 -5 298 19 355 11 26 14 85 16 315 1 114 -2 165 -12 265
-1 14 1 33 5 42 5 10 3 18 -5 21 -6 3 -7 6 -1 6 5 1 9 14 8 29 -2 25 5 77 20
157 3 18 0 38 -9 52 -9 13 -13 23 -10 23 2 0 0 11 -5 25 -5 14 -6 25 -2 25 4
0 8 17 8 38 -1 20 3 91 8 157 9 119 9 327 1 395 -4 33 -13 98 -20 145 -2 11
-4 21 -5 23 -2 1 -3 5 -5 10 -12 42 -39 57 -115 66 -25 2 -55 8 -67 11 -18 6
-30 -1 -61 -35z m-77 -413 l30 2 -1 -272 c-2 -246 3 -335 21 -420 6 -28 -13
-97 -26 -97 -6 0 -4 -73 5 -165 3 -33 -1 -66 -15 -104 -22 -63 -24 -97 -8
-138 16 -42 12 -425 -6 -453 -6 -10 -18 -168 -19 -252 -1 -43 -4 -78 -8 -78
-4 0 -4 -11 1 -23 5 -13 5 -30 1 -37 -5 -8 -6 -18 -4 -22 3 -4 7 -17 10 -28 2
-11 7 -30 10 -42 7 -31 6 -164 -2 -241 -12 -115 -11 -142 7 -211 10 -39 16
-73 14 -76 -5 -8 -14 -53 -20 -100 -13 -93 -17 -175 -21 -409 -2 -140 -5 -286
-6 -325 -1 -39 2 -82 6 -96 16 -54 18 -81 20 -240 2 -146 8 -204 31 -300 14
-61 24 -164 31 -338 2 -57 6 -108 9 -112 3 -5 1 -11 -4 -14 -5 -3 -5 -21 -1
-41 5 -24 4 -35 -4 -36 -8 0 -8 -2 0 -5 8 -4 9 -17 2 -47 -16 -71 -21 -152
-24 -417 -1 -140 -2 -268 -2 -285 2 -83 0 -103 -17 -140 -10 -22 -19 -42 -19
-45 -1 -3 -5 -11 -9 -18 -7 -11 -13 -178 -7 -192 1 -3 3 -23 4 -46 2 -22 6
-46 10 -53 11 -17 7 -186 -4 -186 -6 0 -6 -111 -1 -120 29 -51 9 -132 -30
-120 -10 3 -51 6 -91 6 -68 0 -95 -3 -136 -15 -49 -15 -100 -19 -222 -20 -107
-1 -141 -5 -166 -18 -25 -14 -35 -15 -55 -5 -25 13 -26 17 -18 158 1 29 -4 54
-14 68 -14 21 -13 28 9 93 27 77 32 156 14 203 -19 47 -13 93 20 159 l31 61
-20 63 c-15 51 -19 89 -18 198 1 86 6 137 13 142 21 13 27 53 39 242 7 109 13
134 34 150 18 12 18 17 7 44 -15 37 -12 102 9 176 2 8 7 38 11 65 3 28 10 58
15 68 6 9 8 17 5 17 -3 0 2 22 9 48 21 69 26 119 30 277 1 77 8 163 13 190 9
40 9 170 0 300 -5 68 37 227 80 309 19 34 30 67 27 80 -10 44 -12 116 -4 122
5 3 7 9 4 14 -3 5 -1 29 5 53 16 73 21 135 21 267 -1 125 19 235 43 252 6 4 8
8 5 8 -4 0 -3 17 2 38 19 76 21 122 8 138 -11 13 -9 23 10 58 23 41 23 44 7
78 -15 30 -16 60 -12 209 3 96 7 197 10 224 5 48 18 154 21 165 0 3 4 26 8 51
4 25 10 57 12 70 2 13 6 40 9 59 3 19 7 44 10 55 7 34 17 130 21 207 6 94 13
137 30 195 10 34 12 58 5 88 -5 22 -11 70 -14 107 -4 60 -2 71 20 104 19 27
22 39 13 44 -8 6 -10 22 -5 56 7 47 9 96 5 210 -1 31 5 64 16 84 13 25 18 61
19 144 2 114 10 144 49 178 14 12 28 16 46 11 14 -4 40 -7 56 -6z"/>
<path d="M15984 20893 c-13 -6 -24 -10 -24 -8 0 2 -31 -12 -69 -30 -67 -33
-70 -35 -62 -62 4 -15 7 -47 7 -71 -1 -23 2 -42 5 -42 4 0 3 -16 -1 -35 -4
-19 -4 -35 1 -35 5 0 5 -10 1 -22 -4 -13 -6 -36 -4 -53 1 -16 5 -80 8 -142 4
-93 2 -118 -12 -148 l-17 -37 -13 38 c-15 44 -32 63 -62 69 -12 3 -32 7 -43
10 -26 5 -62 28 -86 54 -10 11 -27 18 -38 17 -11 -2 -24 -1 -30 3 -11 6 -17 7
-52 9 -16 2 -23 8 -23 23 0 29 -54 77 -98 86 -46 9 -52 10 -79 11 -12 1 -24
11 -28 22 -7 23 -38 33 -195 61 -63 11 -122 26 -132 33 -10 8 -43 12 -80 10
-35 -1 -96 4 -137 11 -40 7 -134 14 -207 14 -73 1 -143 4 -156 7 -32 6 -98 6
-128 0 -14 -3 -43 -5 -65 -5 -134 5 -172 2 -215 -18 -44 -20 -77 -34 -92 -38
-5 -2 -10 -4 -13 -5 -3 -1 -9 -4 -15 -5 -5 -1 -13 -3 -17 -5 -5 -1 -28 -1 -53
1 -93 4 -116 0 -202 -41 -35 -16 -103 -41 -153 -55 -200 -57 -356 -128 -400
-182 -16 -20 -46 -50 -65 -67 -67 -60 -86 -85 -99 -125 -6 -23 -27 -55 -46
-72 -19 -17 -33 -34 -33 -38 6 -20 -17 -89 -37 -113 -23 -27 -23 -30 -21 -270
2 -221 4 -251 25 -325 13 -46 27 -83 32 -83 5 0 9 -5 9 -10 0 -6 14 -24 30
-42 19 -19 38 -57 50 -99 14 -47 26 -70 40 -74 32 -10 154 -148 189 -214 18
-33 36 -61 40 -61 5 0 20 -11 35 -25 15 -14 41 -27 59 -30 17 -4 32 -7 32 -8
3 -19 28 -43 53 -49 18 -5 45 -25 63 -48 26 -32 37 -38 56 -34 16 4 36 -2 63
-21 38 -26 83 -34 215 -35 19 0 42 -11 62 -29 17 -15 37 -31 45 -35 7 -4 32
-17 55 -30 30 -16 62 -23 107 -25 36 -1 76 -4 88 -7 13 -2 35 -6 50 -9 14 -3
53 -13 85 -23 59 -19 80 -20 160 -7 24 4 50 2 62 -5 15 -8 21 -8 21 0 0 6 5 8
11 5 10 -7 26 -9 129 -20 80 -8 101 -13 118 -28 11 -9 32 -13 57 -11 35 3 44
-1 81 -39 23 -23 53 -50 66 -59 21 -14 25 -25 26 -65 0 -44 4 -72 17 -130 3
-13 7 -32 10 -44 6 -30 43 -125 61 -161 32 -63 35 -143 6 -201 l-18 -38 28
-59 c26 -54 47 -130 64 -236 7 -47 8 -211 1 -274 -3 -25 -15 -85 -27 -134 -11
-49 -21 -123 -22 -164 l-1 -74 -64 -41 c-42 -28 -63 -49 -64 -62 -1 -40 -8
-61 -45 -133 l-38 -74 -39 6 c-33 6 -44 3 -63 -15 -21 -19 -34 -22 -106 -22
-46 1 -87 -1 -92 -5 -5 -3 -46 -6 -90 -6 -59 -1 -102 5 -161 23 -80 24 -118
28 -139 13 -34 -24 -109 -8 -189 41 -60 37 -123 53 -212 56 -65 2 -133 16
-145 30 -9 10 -93 49 -143 66 -72 23 -103 41 -127 75 -12 16 -19 30 -15 30 3
0 -1 10 -10 23 -9 15 -24 23 -37 22 -13 -1 -43 11 -67 27 -25 15 -53 28 -63
28 -13 0 -25 15 -37 44 -11 24 -33 53 -50 66 -22 15 -35 36 -43 66 -10 36 -19
48 -52 65 -48 25 -84 64 -92 99 -3 14 -10 35 -15 48 -9 23 -6 247 5 292 3 14
12 48 20 75 15 48 15 50 -9 81 -14 18 -40 49 -60 69 l-35 38 -82 -6 c-82 -5
-84 -6 -119 -45 -20 -23 -36 -47 -37 -54 0 -7 -4 -26 -8 -43 -4 -16 -6 -88 -4
-160 7 -408 6 -437 -17 -485 -21 -42 -21 -48 -8 -87 8 -22 16 -52 19 -65 2
-12 14 -52 26 -88 12 -38 20 -88 20 -120 -2 -85 -2 -92 8 -142 5 -27 16 -56
25 -65 11 -13 13 -23 6 -36 -23 -40 -19 -108 10 -166 25 -50 79 -207 83 -241
0 -3 7 -27 15 -55 15 -50 27 -64 75 -90 23 -13 29 -13 40 -1 9 9 21 11 41 5
40 -11 53 -3 71 42 15 37 27 44 69 41 20 -2 21 2 6 30 -9 16 -6 33 14 82 14
33 25 70 23 81 -3 24 -27 75 -36 75 -12 0 -27 65 -26 110 1 25 -2 59 -7 75
-19 64 -19 100 0 124 l19 23 74 -71 c41 -39 83 -73 93 -77 9 -3 17 -10 17 -15
0 -5 4 -9 8 -9 5 0 45 -20 89 -44 85 -45 149 -66 253 -82 92 -14 186 -38 193
-50 4 -8 21 -14 37 -14 16 0 55 -12 87 -26 50 -23 72 -27 166 -28 59 0 111 -6
115 -11 25 -35 40 -37 100 -15 l59 22 40 -20 c21 -11 59 -24 84 -28 47 -7 155
-7 167 0 4 2 26 7 48 10 59 9 83 14 92 20 13 8 63 17 132 23 36 3 72 9 81 14
9 4 36 8 61 7 38 0 116 7 170 18 25 4 63 34 85 67 15 22 25 27 54 25 31 -1 43
6 103 65 37 36 77 69 89 73 12 4 24 10 27 15 3 4 17 9 30 11 14 2 51 30 83 61
32 32 80 69 108 82 30 16 49 32 49 43 0 18 41 83 75 118 90 95 143 175 194
294 13 30 51 111 86 180 46 92 60 130 54 145 -13 34 -10 64 11 111 23 49 38
119 34 150 -17 109 -19 165 -8 216 4 20 -1 34 -16 50 -11 12 -30 54 -42 93
-26 89 -41 117 -94 185 -54 71 -77 113 -94 175 -15 57 -58 102 -131 140 -25
13 -60 35 -77 49 -16 15 -35 26 -41 26 -6 0 -11 4 -11 8 0 10 -97 59 -135 67
-57 13 -147 46 -205 75 -46 23 -76 31 -137 34 -86 5 -90 6 -184 48 -64 29 -68
29 -110 15 -50 -17 -62 -16 -142 13 -49 17 -64 19 -98 10 -70 -19 -204 -6
-264 26 -11 6 -55 9 -97 8 -43 -2 -78 0 -78 4 0 4 -10 8 -23 8 -12 1 -47 9
-77 18 l-56 16 4 40 c6 60 -2 81 -57 139 -27 29 -55 66 -61 82 -7 16 -16 29
-21 29 -5 0 -8 3 -7 8 1 4 -2 19 -6 33 -13 44 -14 64 -4 76 20 25 19 65 -1 80
-12 8 -33 35 -48 61 -30 50 -30 58 -35 510 -1 35 4 68 10 74 7 7 12 20 12 30
0 10 4 18 8 18 14 0 29 83 21 113 -6 21 -2 34 15 55 13 15 36 47 51 72 29 46
61 80 76 80 5 0 15 14 24 30 9 17 13 30 10 30 -11 0 27 56 45 68 27 16 125 25
285 25 165 0 272 -9 329 -28 22 -7 93 -23 156 -35 63 -12 137 -26 164 -32 50
-11 116 -44 116 -57 0 -20 40 -50 78 -60 23 -7 42 -16 42 -21 0 -5 38 -28 84
-50 65 -31 95 -54 133 -96 26 -31 57 -66 68 -78 39 -43 145 -242 145 -271 0
-12 7 -36 16 -53 18 -37 20 -57 11 -94 -5 -18 -3 -28 4 -28 25 0 76 -77 90
-137 23 -101 22 -99 37 -136 7 -16 12 -31 12 -34 0 -3 19 -44 42 -90 25 -52
49 -88 62 -93 12 -4 22 -5 23 -1 4 7 82 5 90 -3 3 -3 13 -1 22 4 10 5 23 5 31
0 19 -12 53 8 46 27 -7 16 70 103 92 103 19 0 14 18 -8 25 -16 5 -18 10 -9 33
20 50 20 73 0 100 -44 62 -59 137 -60 296 -1 119 -5 153 -16 162 -28 21 -43
63 -35 99 9 38 1 190 -10 190 -3 0 -9 50 -11 95 0 25 7 72 17 105 24 76 24
303 1 378 -9 29 -11 49 -5 53 5 3 9 18 8 32 -1 15 -1 30 0 35 1 4 3 10 4 15 1
4 5 13 9 20 5 7 3 14 -6 18 -15 5 -34 42 -41 79 -10 50 -26 73 -54 79 -40 9
-100 4 -128 -11z m-2377 -687 c13 -12 3 -65 -22 -122 -30 -68 -41 -129 -26
-138 14 -9 6 -61 -26 -165 -20 -64 -24 -89 -17 -110 6 -16 7 -43 1 -70 -7 -31
-6 -51 4 -70 16 -34 19 -46 28 -106 4 -27 12 -59 18 -70 5 -11 9 -55 8 -98 -3
-87 0 -98 56 -237 52 -129 68 -179 59 -185 -23 -14 -93 20 -184 89 -10 8 -35
18 -56 21 -21 4 -46 14 -56 23 -11 9 -42 35 -69 57 -60 47 -74 64 -75 88 0 9
-4 17 -8 17 -5 0 -9 6 -9 13 -1 31 -36 128 -61 166 -19 30 -37 44 -63 51 -31
9 -41 19 -68 74 -30 61 -30 65 -16 99 8 20 17 76 19 124 2 48 7 97 11 108 12
37 48 105 55 105 7 0 10 19 10 57 0 19 11 30 75 81 44 35 129 88 175 109 30
13 70 37 89 51 19 15 44 32 55 39 20 11 82 11 93 -1z m1718 -2048 c25 -12 45
-25 45 -29 0 -16 65 -29 100 -19 31 9 39 6 94 -30 106 -69 141 -111 153 -184
6 -36 30 -69 64 -90 21 -12 26 -23 25 -48 -1 -20 7 -48 21 -70 13 -21 23 -40
23 -44 0 -3 9 -17 19 -31 14 -17 18 -31 12 -46 -4 -11 -5 -35 -1 -52 3 -16 5
-41 4 -55 -9 -83 -14 -110 -24 -155 -7 -27 -14 -59 -16 -70 -1 -11 -6 -31 -9
-45 -3 -14 -8 -41 -11 -60 -2 -19 -9 -36 -14 -38 -16 -6 -54 -73 -75 -133 -18
-52 -67 -116 -172 -226 -13 -13 -23 -27 -23 -32 0 -7 -72 -51 -85 -51 -3 0 -5
28 -4 63 2 43 8 70 22 89 20 27 20 27 -3 75 -21 46 -22 52 -10 130 12 74 11
89 -9 175 -12 52 -24 132 -26 179 -8 141 -16 181 -42 210 -16 19 -17 27 -9
119 3 42 0 76 -9 96 -15 37 -15 49 3 82 7 12 9 22 5 22 -4 0 -19 17 -33 38
-14 20 -31 42 -39 48 -9 7 -14 27 -13 52 1 23 -2 43 -6 46 -9 5 -16 106 -8
106 3 0 26 -10 51 -22z"/>
<path d="M20519 20867 c-46 -22 -88 -39 -92 -38 -5 1 -5 -8 -2 -20 9 -28 16
-103 15 -149 -2 -50 -2 -58 5 -222 7 -150 -3 -224 -28 -215 -7 3 -11 10 -9 16
6 29 -38 69 -89 81 -49 12 -68 23 -107 60 -9 8 -25 16 -36 16 -12 1 -40 5 -63
9 -34 6 -43 12 -43 27 0 11 -14 33 -31 49 -31 29 -63 40 -128 44 -21 1 -37 9
-44 21 -5 10 -11 20 -12 22 -5 6 -110 33 -140 36 -16 2 -48 7 -70 11 -22 4
-49 9 -60 11 -11 2 -34 11 -52 21 -23 12 -37 14 -54 7 -15 -7 -50 -5 -118 7
-53 9 -159 17 -238 18 -78 1 -152 4 -165 7 -31 7 -117 6 -148 -2 -46 -10 -65
-10 -102 2 -20 7 -38 11 -40 9 -2 -2 -19 -7 -38 -10 -19 -3 -75 -22 -124 -42
-68 -27 -102 -35 -147 -34 -32 0 -61 1 -66 2 -19 4 -93 -14 -93 -23 0 -5 -4
-7 -9 -4 -5 3 -14 -1 -21 -9 -7 -8 -16 -13 -20 -10 -5 3 -11 1 -15 -5 -5 -7
-85 -36 -125 -45 -50 -11 -88 -23 -150 -47 -41 -16 -79 -31 -85 -32 -48 -13
-131 -62 -162 -96 -21 -24 -51 -54 -66 -69 -73 -67 -98 -96 -103 -120 -12 -52
-15 -58 -39 -71 -25 -14 -40 -43 -50 -101 -4 -20 -17 -47 -29 -61 -23 -24 -23
-27 -22 -274 1 -173 5 -255 13 -270 7 -12 10 -23 8 -26 -10 -9 33 -109 59
-138 29 -33 69 -100 60 -100 -4 0 -2 -6 3 -12 5 -7 10 -24 11 -37 0 -13 11
-30 24 -39 50 -32 165 -160 193 -215 32 -60 94 -113 144 -123 15 -3 31 -15 36
-27 6 -12 24 -25 42 -29 19 -5 45 -24 63 -47 24 -29 36 -37 54 -34 15 3 39 -5
64 -22 33 -21 55 -27 119 -31 43 -2 91 -5 106 -6 16 -1 44 -17 64 -34 61 -54
120 -78 203 -82 41 -2 82 -6 90 -9 8 -3 18 -6 21 -5 3 0 39 -8 80 -20 83 -23
139 -30 154 -18 6 5 30 7 55 5 74 -4 203 -16 230 -22 14 -2 36 -6 50 -8 13 -2
29 -10 35 -18 7 -9 24 -13 53 -10 40 3 48 0 89 -39 25 -24 56 -53 69 -65 20
-18 23 -30 21 -72 -1 -28 0 -51 3 -51 3 0 6 -8 6 -17 2 -53 27 -135 76 -247
36 -83 40 -147 11 -202 l-20 -39 29 -61 c16 -34 31 -71 33 -83 2 -13 6 -30 9
-39 42 -139 37 -389 -10 -554 -4 -13 -10 -64 -13 -114 -6 -88 -20 -124 -49
-124 -6 0 -12 -3 -14 -7 -1 -5 -16 -16 -33 -25 -23 -13 -32 -26 -37 -58 -16
-93 -95 -217 -121 -191 -17 17 -44 13 -66 -10 -17 -19 -33 -22 -123 -25 -244
-9 -296 -6 -352 23 -27 14 -88 13 -151 -3 -27 -7 -107 21 -156 53 -48 32 -117
49 -204 52 -81 2 -121 13 -187 52 -26 15 -67 33 -90 39 -24 7 -49 17 -55 22
-7 6 -13 7 -13 4 0 -20 -64 42 -82 79 -18 36 -27 45 -57 50 -19 4 -48 16 -64
27 -15 11 -40 23 -55 27 -18 5 -30 17 -37 39 -6 17 -27 46 -47 64 -40 37 -58
67 -58 98 0 14 -9 24 -30 31 -16 6 -30 16 -30 22 0 6 -3 7 -6 4 -9 -9 -52 41
-71 83 -25 54 -26 263 -2 360 11 41 21 83 24 93 4 16 -18 46 -88 120 -27 28
-29 29 -105 24 -78 -5 -112 -13 -112 -26 0 -4 -9 -17 -20 -29 -12 -12 -18 -22
-14 -22 3 0 2 -6 -4 -13 -19 -23 -28 -118 -24 -242 7 -190 7 -388 0 -416 -3
-15 -14 -41 -22 -58 -13 -24 -14 -36 -6 -51 6 -11 9 -20 6 -20 -3 0 2 -16 10
-35 8 -19 14 -38 14 -42 1 -5 10 -39 22 -78 12 -42 20 -92 18 -125 -4 -101 11
-186 37 -205 15 -11 15 -15 3 -30 -21 -25 -19 -129 3 -153 9 -10 17 -21 17
-24 0 -3 8 -23 17 -44 9 -22 16 -42 15 -46 -1 -4 6 -24 14 -45 9 -21 16 -39
15 -40 0 -2 -1 -4 0 -5 1 -6 9 -34 19 -77 6 -24 18 -57 27 -72 18 -31 79 -64
88 -48 4 5 27 9 53 7 25 -1 47 2 49 8 25 64 39 79 71 76 30 -2 43 10 23 22
-12 8 -4 65 13 90 31 49 29 111 -7 148 -24 25 -38 70 -31 103 3 18 -1 60 -10
95 -20 78 -20 93 2 120 l18 22 64 -61 c144 -136 271 -198 493 -241 111 -22
164 -37 177 -50 10 -10 27 -16 37 -14 10 3 49 -8 86 -24 60 -26 77 -29 157
-26 81 3 92 0 125 -22 l37 -25 55 21 56 21 43 -20 c81 -38 175 -43 316 -15 15
3 30 5 33 5 2 0 19 5 37 10 56 17 71 20 135 25 34 2 73 8 85 13 13 4 53 9 89
10 60 1 80 4 129 16 8 2 20 4 25 4 11 1 49 36 78 70 13 16 26 21 49 18 27 -3
40 5 95 60 61 60 108 91 161 108 13 4 49 32 80 63 32 32 76 65 99 76 34 15 46
27 59 62 9 24 21 44 25 44 5 0 9 4 9 10 0 5 25 35 56 67 61 64 124 162 168
263 16 36 57 121 91 190 46 92 60 130 54 145 -14 36 -9 73 16 122 27 53 33
132 18 233 -5 30 -5 75 -1 99 7 39 5 50 -16 80 -14 20 -32 63 -42 96 -19 69
-44 121 -71 150 -32 34 -103 149 -103 166 0 58 -62 134 -140 174 -25 13 -70
42 -100 65 -66 49 -123 77 -179 86 -23 4 -44 11 -47 15 -3 5 -13 9 -22 9 -9 0
-55 18 -101 41 -68 33 -96 40 -145 41 -67 2 -148 23 -214 57 -40 20 -46 21
-90 8 -55 -16 -68 -15 -145 13 -49 17 -64 19 -98 10 -68 -19 -213 -5 -258 24
-7 5 -50 10 -95 11 -80 2 -116 7 -146 18 -8 3 -34 11 -58 17 -39 10 -42 13
-35 38 7 29 7 36 -1 67 -2 11 -5 23 -5 26 -1 3 -24 30 -51 60 -53 57 -100 142
-104 187 -1 15 4 38 11 52 19 36 17 42 -23 86 -20 21 -41 50 -47 64 -6 14 -11
104 -12 205 -1 99 -6 206 -10 237 -6 45 -3 69 11 110 10 29 23 56 28 60 6 4
10 37 11 75 0 44 5 73 14 83 8 8 30 39 49 70 36 57 55 77 87 96 10 5 24 30 32
55 17 58 46 77 130 85 166 16 451 4 526 -21 23 -7 115 -28 204 -45 193 -37
216 -46 249 -105 6 -11 30 -25 52 -32 23 -6 58 -25 79 -41 21 -16 58 -37 83
-46 50 -19 139 -106 199 -196 57 -84 121 -209 121 -235 0 -12 7 -36 15 -51 9
-16 15 -48 13 -73 -2 -33 3 -47 17 -60 44 -37 69 -83 80 -149 16 -96 113 -315
147 -333 12 -7 18 -6 18 1 0 7 6 8 17 2 9 -6 29 -6 45 -2 15 5 28 6 28 2 0 -9
58 -7 88 2 15 5 22 15 22 31 0 16 16 38 49 66 47 41 49 44 30 57 -16 11 -17
17 -7 35 18 35 18 69 -2 97 -43 60 -58 136 -59 294 -2 128 -4 152 -19 165 -27
25 -39 63 -31 99 8 38 5 114 -5 157 -22 87 -21 156 2 245 27 98 23 303 -6 379
-6 17 -5 33 4 50 8 15 10 31 5 40 -5 8 -4 24 1 37 8 18 7 26 -5 39 -9 8 -24
43 -33 76 -9 33 -22 63 -28 67 -6 4 -38 7 -72 8 -51 1 -74 -6 -145 -39z
m-2316 -656 c18 -3 5 -81 -24 -141 -22 -48 -29 -73 -24 -95 12 -59 12 -81 -1
-117 -7 -21 -11 -38 -8 -38 2 0 -2 -12 -10 -27 -18 -37 -28 -105 -18 -121 5
-7 5 -38 0 -68 -7 -43 -5 -61 8 -85 9 -17 18 -55 21 -83 3 -28 11 -62 18 -76
8 -15 12 -51 10 -90 -3 -64 12 -170 25 -180 4 -3 9 -14 13 -25 3 -11 16 -47
30 -80 33 -81 40 -98 43 -110 1 -5 5 -17 8 -25 10 -23 -30 -23 -73 1 -44 24
-74 42 -81 50 -13 14 -78 48 -83 43 -7 -8 -69 25 -88 47 -9 11 -21 19 -26 19
-15 0 -103 95 -103 112 0 15 -1 17 -15 58 -8 22 -12 40 -9 40 3 0 -9 27 -26
59 -27 51 -46 71 -70 73 -21 2 -63 48 -85 93 -24 52 -25 57 -10 88 8 17 17 70
20 117 7 122 15 153 57 209 10 13 18 38 18 56 0 25 8 39 38 63 81 66 206 145
230 145 6 0 12 5 12 10 0 6 3 7 7 4 3 -4 25 8 47 26 66 54 79 58 149 48z
m1716 -2051 c22 -10 46 -27 55 -35 15 -16 76 -22 120 -12 19 4 114 -56 163
-102 27 -26 53 -74 59 -110 7 -41 22 -64 59 -90 27 -18 34 -29 31 -47 -4 -22
47 -141 68 -155 5 -4 6 -11 3 -16 -3 -5 -2 -15 3 -23 5 -8 5 -21 -1 -31 -5
-10 -6 -20 -1 -23 6 -4 7 -26 1 -106 -1 -8 -8 -46 -16 -85 -8 -38 -17 -79 -19
-90 -1 -11 -6 -32 -9 -47 -3 -16 -7 -39 -9 -52 -5 -30 -24 -66 -34 -66 -10 0
-37 -53 -62 -122 -12 -33 -37 -74 -58 -95 -21 -21 -64 -69 -96 -106 -49 -57
-99 -97 -121 -97 -3 0 -5 26 -5 58 0 40 6 67 21 91 l20 33 -21 46 c-15 32 -20
56 -16 81 17 108 17 148 1 206 -9 33 -18 67 -20 76 -3 13 -14 137 -20 229 -1
19 -3 43 -4 53 0 9 -10 26 -22 38 -22 22 -23 38 -16 134 4 38 1 71 -8 92 -18
43 -18 38 0 73 9 17 12 30 8 30 -5 0 -19 17 -33 38 -14 20 -31 42 -39 48 -7 6
-15 30 -17 55 -2 24 -6 68 -10 97 -3 28 -3 52 0 52 4 0 24 -9 45 -20z"/>
<path d="M9140 20441 c0 -8 -35 -20 -135 -47 -65 -17 -64 -17 -116 -8 -42 7
-90 -11 -138 -52 -26 -22 -46 -29 -77 -30 -31 0 -59 -10 -102 -37 -33 -20 -84
-42 -113 -49 -39 -9 -65 -23 -92 -49 -31 -30 -43 -36 -76 -34 -35 2 -43 -2
-75 -41 -40 -47 -118 -90 -185 -100 -47 -8 -77 -31 -137 -109 -39 -50 -104
-162 -98 -168 2 -2 -2 -10 -11 -17 -8 -7 -15 -19 -15 -27 0 -8 -6 -27 -14 -41
-8 -15 -33 -67 -56 -117 -23 -49 -62 -124 -86 -166 -57 -98 -58 -161 -4 -221
26 -29 114 -60 200 -72 14 -2 39 -6 56 -10 30 -7 31 -6 38 33 3 22 19 62 35
88 22 38 27 59 26 98 -2 42 3 58 28 95 17 25 33 47 37 50 3 3 18 30 34 60 74
141 146 226 221 260 28 13 53 24 56 24 4 1 32 20 63 43 57 42 146 82 200 89
16 2 36 13 45 26 23 31 23 32 51 49 21 13 104 27 193 32 9 1 17 5 17 9 0 4 5
8 10 8 6 0 29 12 52 26 34 22 48 25 82 19 58 -9 73 -8 106 8 28 14 126 17 147
4 5 -3 34 3 64 13 56 19 135 20 204 4 28 -7 196 -10 255 -4 29 2 60 -4 86 -19
11 -6 41 -20 67 -31 26 -11 45 -25 42 -30 -3 -6 3 -30 14 -55 20 -46 32 -93
32 -130 0 -11 0 -53 -1 -94 -1 -62 2 -79 20 -103 27 -37 37 -102 30 -203 -5
-73 10 -189 38 -297 24 -90 30 -130 26 -175 -3 -32 -6 -64 -6 -70 -2 -17 -2
-17 -83 12 -38 13 -89 25 -112 25 -23 0 -45 5 -48 10 -3 6 -15 10 -26 10 -10
0 -28 9 -39 20 -11 11 -23 20 -26 20 -4 0 -12 7 -18 16 -9 12 -17 13 -39 5
-21 -8 -38 -7 -70 5 -132 50 -120 48 -187 21 -50 -20 -80 -24 -163 -25 -65 -1
-128 -8 -172 -20 -38 -11 -122 -33 -185 -50 -64 -17 -130 -33 -147 -36 -49 -9
-208 -63 -265 -90 -29 -14 -66 -37 -83 -52 -16 -15 -62 -42 -101 -61 -63 -30
-74 -32 -100 -22 -50 21 -61 20 -80 -9 -21 -33 -36 -45 -94 -77 -25 -14 -56
-41 -69 -61 -13 -19 -30 -33 -37 -30 -7 3 -25 -6 -41 -20 -15 -14 -47 -37 -71
-52 -23 -15 -45 -35 -48 -45 -3 -11 -28 -28 -56 -40 -40 -16 -50 -26 -55 -50
-4 -19 -17 -35 -36 -46 -38 -21 -63 -45 -112 -109 -21 -29 -42 -52 -45 -52
-14 -1 -41 -30 -45 -49 -3 -11 -7 -31 -10 -43 -7 -31 -55 -124 -76 -146 -10
-11 -23 -48 -30 -83 -7 -35 -22 -89 -34 -119 -16 -41 -21 -75 -20 -133 0 -43
-3 -81 -7 -83 -22 -14 -38 -82 -38 -166 0 -49 -5 -99 -11 -110 -17 -32 -13
-91 10 -129 11 -19 27 -72 35 -117 30 -157 88 -340 143 -447 27 -52 102 -112
233 -188 53 -30 80 -50 126 -95 18 -18 46 -34 61 -37 31 -4 40 -6 101 -24 23
-6 42 -16 42 -21 0 -6 7 -10 15 -10 9 0 21 -5 28 -10 62 -52 73 -59 93 -54 11
3 27 -1 35 -8 8 -8 16 -15 19 -16 3 0 12 -3 20 -5 8 -3 29 -10 46 -15 32 -10
112 -9 154 2 14 4 32 9 40 11 8 2 16 4 18 5 1 2 7 4 12 5 6 1 11 3 13 4 1 1
31 10 67 20 36 11 90 27 120 36 30 10 90 19 133 20 51 2 87 9 103 20 25 16 89
42 129 51 11 3 27 7 35 9 8 2 15 4 15 5 0 2 24 7 74 15 23 3 53 10 65 14 11 5
23 8 26 8 3 0 34 15 70 32 71 36 92 42 133 42 23 0 27 4 27 30 0 16 3 29 8 30
33 3 50 11 68 32 12 14 43 37 70 52 27 15 72 44 99 65 28 21 68 46 90 57 22
10 52 32 67 49 20 23 34 30 52 27 23 -5 24 -7 18 -71 -7 -94 -7 -251 1 -359 5
-73 11 -97 26 -112 11 -11 30 -39 41 -61 25 -49 48 -73 92 -96 50 -26 115 -25
170 2 77 39 138 56 192 54 109 -3 131 -1 141 14 9 11 31 15 91 14 64 -1 209 7
209 12 0 4 91 18 161 25 56 5 74 8 134 20 72 15 186 15 231 0 26 -9 58 -18 71
-20 12 -3 34 -7 48 -10 38 -8 275 -4 275 4 0 1 16 4 35 6 81 10 95 16 115 45
11 16 23 30 26 30 3 0 19 11 35 25 16 14 32 25 35 25 3 0 16 9 29 20 16 14 37
20 71 20 38 0 51 5 63 22 15 20 14 23 -2 32 -24 13 -33 29 -22 40 18 18 11 61
-12 76 -13 8 -25 15 -28 16 -3 0 -12 3 -20 7 -26 10 -93 19 -140 18 -188 -6
-237 -2 -305 22 -22 7 -58 12 -80 11 -105 -7 -188 -4 -203 8 -8 7 -16 11 -16
9 -1 -2 -25 4 -54 13 -40 14 -56 25 -63 45 -16 41 -7 150 17 198 18 36 19 45
8 60 -19 26 -17 53 8 98 23 43 28 129 14 252 -6 52 -4 68 15 110 21 45 22 61
21 253 -1 113 -2 221 -2 240 -3 71 23 225 40 244 4 4 4 21 -1 38 -27 95 -28
329 -3 597 7 74 0 111 -21 111 -21 0 -32 29 -33 90 -1 91 -13 162 -34 210 -12
25 -31 68 -44 97 -24 53 -55 168 -48 176 3 2 -11 18 -31 35 -19 17 -35 38 -35
46 0 8 -4 16 -9 18 -5 2 -11 23 -15 47 -4 29 -15 53 -36 74 -16 17 -32 39 -36
49 -3 10 -10 18 -16 18 -6 0 -9 2 -6 6 3 3 -1 26 -8 51 -8 25 -14 61 -14 80 0
28 -10 43 -61 91 -73 67 -157 152 -291 290 -94 97 -99 101 -140 101 -80 0
-158 22 -194 56 -7 5 -24 19 -38 29 -15 11 -38 30 -52 43 -14 12 -28 23 -32
24 -4 0 -16 2 -27 4 -11 1 -42 6 -70 10 -27 3 -66 9 -85 11 -19 3 -102 19
-185 36 -82 16 -161 32 -175 34 -14 3 -67 7 -119 9 -83 4 -97 2 -124 -17 -23
-17 -31 -18 -37 -8 -9 14 -77 17 -185 8 -27 -3 -61 0 -75 5 -38 14 -60 17 -60
8z m1431 -681 c88 -86 124 -141 214 -324 96 -194 123 -244 146 -266 23 -21 37
-68 33 -113 -4 -42 9 -75 37 -95 23 -16 37 -61 43 -142 3 -36 10 -80 15 -97 5
-18 11 -59 12 -90 1 -32 11 -78 21 -101 31 -75 31 -97 -1 -157 -25 -46 -28
-60 -20 -87 5 -17 13 -36 19 -42 15 -15 12 -78 -5 -119 -15 -37 -17 -57 -13
-157 2 -56 -9 -286 -18 -393 -11 -124 -15 -197 -19 -337 -8 -243 -16 -351 -29
-420 -4 -19 -9 -44 -11 -55 -2 -11 -4 -21 -4 -22 -1 -2 -1 -6 -2 -10 0 -5 -5
-14 -11 -20 -6 -7 -8 -13 -5 -13 4 0 0 -17 -7 -38 -20 -56 -30 -127 -31 -212
0 -83 -14 -103 -65 -93 -43 9 -65 9 -75 3 -12 -8 -82 -30 -110 -35 -11 -2 -20
-4 -20 -5 0 -1 -35 -3 -79 -4 -74 -1 -79 0 -94 24 -9 14 -31 40 -49 58 -19 18
-38 45 -44 60 -12 31 -10 116 4 152 17 46 18 166 1 205 -8 20 -12 40 -9 45 3
5 7 55 9 112 3 67 16 154 36 243 17 77 33 152 36 168 13 84 14 90 37 172 16
60 14 90 -11 156 -11 27 -6 69 7 69 10 0 11 19 15 365 2 176 7 340 10 365 4
25 9 77 11 117 14 201 14 236 1 267 -26 57 -30 90 -31 271 -1 144 -5 192 -20
240 -10 33 -20 65 -21 70 -1 6 -12 46 -24 90 -21 79 -33 214 -23 267 l5 27 42
-22 c22 -12 66 -46 97 -77z m-836 -1140 c22 -7 50 -13 63 -12 21 2 52 -19 92
-61 10 -10 30 -20 46 -23 40 -7 50 -18 64 -69 12 -44 84 -130 144 -172 23 -16
27 -23 19 -39 -6 -10 -8 -64 -6 -119 6 -163 7 -319 1 -340 -4 -11 -12 -33 -18
-50 -7 -17 -11 -66 -10 -110 5 -176 3 -244 -13 -325 -18 -95 -30 -110 -92
-110 -33 0 -50 -7 -83 -35 -38 -33 -95 -129 -95 -162 0 -8 -23 -29 -51 -48
-28 -19 -73 -55 -101 -82 -64 -62 -132 -110 -168 -119 -15 -3 -44 -26 -63 -50
-27 -33 -44 -44 -64 -44 -18 0 -40 -12 -61 -32 -21 -19 -47 -33 -69 -35 -19
-2 -41 -4 -48 -5 -7 -1 -28 -18 -47 -39 -53 -59 -75 -71 -105 -56 -22 11 -31
10 -70 -10 -25 -12 -67 -25 -95 -28 -27 -3 -61 -7 -75 -10 -14 -3 -34 -7 -45
-9 -27 -6 -62 -20 -142 -57 -59 -28 -80 -32 -163 -35 -99 -3 -161 6 -259 37
-49 15 -161 78 -161 89 0 6 -7 10 -15 10 -7 0 -18 6 -22 14 -4 8 -25 17 -47
20 -21 4 -55 19 -75 34 -20 15 -45 32 -56 38 -18 10 -107 174 -99 183 2 2 0 9
-5 15 -5 6 -16 38 -26 71 -9 33 -22 66 -27 73 -6 6 -8 12 -5 12 3 0 -9 34 -28
75 -31 68 -33 77 -20 101 8 17 11 35 6 48 -10 24 -5 82 8 111 34 75 39 100 25
127 -9 17 -10 29 -4 33 21 13 50 85 54 137 2 29 5 53 6 53 1 0 3 10 6 23 12
68 52 118 210 270 8 8 21 29 28 47 15 36 94 115 135 136 14 8 28 16 31 19 3 3
30 21 60 40 30 19 64 43 74 52 11 10 22 18 25 18 3 0 17 16 30 35 15 22 32 35
46 35 12 0 51 19 86 41 102 66 128 79 174 86 24 3 55 16 71 30 38 33 64 42
152 53 51 7 90 19 121 37 36 22 60 28 113 29 43 1 95 11 145 29 43 15 101 29
128 32 28 3 51 6 52 7 1 0 64 1 140 1 92 0 151 -5 178 -15z"/>
</g>
</svg>
